<svg xmlns="http://www.w3.org/2000/svg" viewBox="0 0 32 32">
  <defs>
    <linearGradient id="stars-flow-favicon" x1="3" y1="2" x2="29" y2="30" gradientUnits="userSpaceOnUse">
      <stop stop-color="#2F7DF4"/>
      <stop offset="1" stop-color="#7060F6"/>
    </linearGradient>
  </defs>
  <rect x="1" y="1" width="30" height="30" rx="9" fill="url(#stars-flow-favicon)"/>
  <path d="M22.8 5l.9 2.1 2.1.9-2.1.9-.9 2.1-.9-2.1-2.1-.9 2.1-.9.9-2.1z" fill="#FFF"/>
  <path d="M10 11.2c1-1 2.4-1.5 4.3-1.5 1.6 0 3 .35 4.2 1.05l-1.2 2.45a6.2 6.2 0 0 0-3-.8c-1.05 0-1.6.25-1.6.75 0 .45.55.8 1.65 1.05 1.85.45 3.15 1 3.9 1.7.75.65 1.1 1.6 1.1 2.8 0 1.4-.5 2.5-1.55 3.3-1 .8-2.45 1.2-4.35 1.2-1.95 0-3.65-.45-5.1-1.35l1.35-2.45c1.2.8 2.5 1.15 3.85 1.15 1.15 0 1.75-.3 1.75-.9 0-.45-.6-.8-1.75-1.05-1.75-.4-3-.9-3.8-1.55-.75-.65-1.15-1.6-1.15-2.75 0-1.25.45-2.25 1.4-3.05z" fill="#FFF"/>
</svg>
